REM DIRINDEX 1
REM DIRNAME folder01
TITLE ""
FILE "Disk2Track10.mp3" MP3
  TRACK 01 AUDIO
    TITLE "1:cjc069_0489"
    INDEX 01 00:00:00
  TRACK 02 AUDIO
    TITLE "1:cjc069_0490"
    INDEX 01 00:21:15
  TRACK 03 AUDIO
    TITLE "1:cjc069_0491"
    INDEX 01 00:30:32
  TRACK 04 AUDIO
    TITLE "1:cjc069_0492"
    INDEX 01 00:34:43
  TRACK 05 AUDIO
    TITLE "0:"
    INDEX 01 00:41:00
